<svg width="28" height="24" viewBox="0 0 28 24" fill="none" xmlns="http://www.w3.org/2000/svg">
<path d="M0 2.11769C0 0.948122 0.940202 0 2.1 0H25.9C27.0598 0 28 0.948122 28 2.11769C28 3.28726 27.0598 4.23538 25.9 4.23538H2.1C0.940201 4.23538 0 3.28726 0 2.11769Z" fill="#E81684"/>
<path d="M0 12C0 10.8304 0.940202 9.88231 2.1 9.88231H25.9C27.0598 9.88231 28 10.8304 28 12C28 13.1696 27.0598 14.1177 25.9 14.1177H2.1C0.940201 14.1177 0 13.1696 0 12Z" fill="#E81684"/>
<path d="M0 21.8823C0 20.7127 0.940202 19.7646 2.1 19.7646H25.9C27.0598 19.7646 28 20.7127 28 21.8823C28 23.0519 27.0598 24 25.9 24H2.1C0.940201 24 0 23.0519 0 21.8823Z" fill="#E81684"/>
</svg>
